<?xml version="1.0" encoding="UTF-8" standalone="no"?>


<svg
   xmlns:svg="http://www.w3.org/2000/svg"
   xmlns="http://www.w3.org/2000/svg"
   version="1.1"
   width="329.39044"
   height="91.802559"
   id="svg2">
  <defs
     id="defs4" />
  <g
     transform="translate(-143.55883,-18.403126)"
     id="layer1">
    <g
       transform="matrix(0.92312489,0,0,0.92312489,54.790601,-60.566391)"
       id="g3626"
       style="fill:#ffffff;fill-opacity:1;stroke:#000000;stroke-width:1.6249156;stroke-miterlimit:4;stroke-opacity:1;stroke-dasharray:none">
      <path
         d="M 377.004,134.026 V 99.04 l 5.726,0.054 5.726,0.053 0.104,14.526 0.103,14.528 0.605,0.51 c 0.776,0.653 1.978,0.553 2.78,-0.231 l 0.535,-0.525 0.056,-14.459 0.056,-14.456 6.96,0.053 6.96,0.053 v 4.043 l -0.876,0.062 -0.877,0.062 v 61.655 h 1.873 l -0.06,1.972 -0.06,1.972 -6.965,0.053 -6.964,0.054 v -13.664 c 0,-14.42 0.008,-14.296 -0.918,-15.048 -0.585,-0.477 -1.941,-0.332 -2.556,0.272 l -0.549,0.537 -0.056,13.95 -0.056,13.949 h -11.547 v -34.989 z m -43.082,34.402 c -1.97,-0.666 -3.35,-2.093 -4.22,-4.369 l -0.466,-1.213 -0.055,-31.9 -0.056,-31.901 h 11.562 v 28.317 c 0,30.356 -0.033,29.365 1.001,29.906 0.805,0.423 1.874,0.266 2.523,-0.371 l 0.603,-0.592 V 99.044 h 11.349 v 28.423 c 0,30.628 -0.047,29.252 1.02,29.813 0.786,0.412 1.86,0.248 2.503,-0.383 l 0.604,-0.592 V 99.044 h 13.427 l -0.06,2.072 -0.06,2.074 -0.773,0.062 -0.775,0.064 v 61.452 h 1.651 v 4.044 l -19.345,-0.01 c -18.192,-0.008 -19.406,-0.026 -20.433,-0.374 z m 80.98,0.1 c -1.956,-0.525 -3.816,-2.32 -4.602,-4.44 -0.367,-0.992 -0.387,-2.305 -0.44,-29.35 -0.04,-19.73 0.012,-28.632 0.168,-29.368 0.525,-2.482 2.231,-4.732 4.323,-5.7 l 1.135,-0.524 h 8.357 c 9.508,0 9.911,0.052 11.596,1.504 1.098,0.948 1.714,2.223 2.022,4.18 0.147,0.944 0.2,10.42 0.161,29.4 l -0.059,28.01 -0.477,1.314 c -0.866,2.392 -2.374,3.931 -4.681,4.778 -0.932,0.342 -1.776,0.383 -8.77,0.42 -5.878,0.032 -7.975,-0.02 -8.732,-0.225 z m 10.227,-12.44 0.674,-0.59 0.062,-20.693 c 0.035,-11.382 0.005,-21.175 -0.066,-21.763 -0.168,-1.387 -0.74,-2.053 -1.894,-2.205 -0.768,-0.101 -0.938,-0.043 -1.495,0.503 l -0.629,0.617 v 43.478 l 0.534,0.623 c 0.736,0.857 1.857,0.869 2.814,0.03 z"
         id="path3613"
         style="fill:#ffffff;fill-opacity:1;stroke:#000000;stroke-width:1.6249156;stroke-miterlimit:4;stroke-opacity:1;stroke-dasharray:none" />
      <path
         d="m 110.30293,167.073 0,-1.941 1.586,0 0,-62.214 -1.587,0 0,-3.88 11.742,0.06 11.742,0.06 1.52,0.672 c 2.283,1.006 3.592,2.647 4.224,5.291 0.184,0.768 0.256,8.93 0.253,28.763 -0.005,30.166 0.03,29.318 -1.282,31.48 -0.801,1.322 -2.272,2.477 -3.897,3.066 -1.265,0.458 -1.412,0.464 -12.79,0.526 l -11.51,0.063 0,-1.946 -10e-4,0 z m 16.927,-10.554 0.536,-0.56 0,-43.924 -0.663,-0.594 c -0.569,-0.51 -0.837,-0.594 -1.882,-0.594 -0.67,0 -1.342,0.11 -1.491,0.244 -0.208,0.187 -0.273,5.54 -0.273,22.855 0,12.437 0.066,22.767 0.147,22.957 0.122,0.285 0.392,0.328 1.619,0.26 1.262,-0.072 1.546,-0.164 2.007,-0.644 z m 22.65,12.294 c -2.155,-0.49 -4.046,-2.042 -4.858,-3.986 -0.275,-0.66 -0.6,-1.936 -0.722,-2.836 -0.137,-1.014 -0.195,-12.06 -0.154,-28.983 0.064,-25.984 0.088,-27.402 0.487,-28.465 0.948,-2.523 2.34,-4.118 4.287,-4.906 1.178,-0.478 1.242,-0.481 9.578,-0.481 8.36,0 8.395,0 9.59,0.486 1.544,0.625 2.809,1.914 3.357,3.423 0.408,1.124 0.43,2.403 0.491,29.832 0.063,28.12 0.056,28.687 -0.39,30.271 -0.782,2.773 -2.206,4.348 -4.753,5.26 -1.21,0.434 -1.598,0.455 -8.75,0.496 -4.115,0.024 -7.79,-0.025 -8.163,-0.111 z m 9.636,-12.39 c 0.43,-0.385 0.691,-0.877 0.787,-1.475 0.08,-0.493 0.115,-10.335 0.076,-21.873 -0.068,-20.953 -0.069,-20.978 -0.544,-21.552 -0.942,-1.134 -2.415,-1.134 -3.356,0 -0.476,0.573 -0.477,0.594 -0.544,21.856 -0.047,14.729 0.007,21.514 0.175,22.033 0.502,1.549 2.234,2.062 3.406,1.011 z m 22.184,12.294 c -2.276,-0.565 -3.765,-1.945 -4.76,-4.416 l -0.526,-1.305 -0.064,-27.955 c -0.047,-19.902 0.008,-28.348 0.188,-29.318 0.322,-1.728 1.497,-3.909 2.629,-4.88 0.482,-0.414 1.387,-0.962 2.01,-1.22 1.092,-0.45 1.395,-0.47 8.013,-0.531 9.263,-0.087 11.105,0.138 12.817,1.561 1.896,1.577 2.174,3.213 2.183,12.887 l 0.008,7.675 -11.795,0 0,-4.482 c 0,-4.972 -0.104,-5.42 -1.37,-5.89 -0.898,-0.333 -1.7,-0.101 -2.348,0.68 -0.477,0.573 -0.477,0.592 -0.542,21.857 -0.036,11.705 -0.008,21.567 0.062,21.92 0.322,1.615 2.284,2.228 3.536,1.105 l 0.662,-0.594 0,-9.993 11.827,0 -0.077,8.387 c -0.074,8.11 -0.094,8.429 -0.591,9.673 -0.979,2.448 -2.263,3.724 -4.58,4.557 -1.185,0.425 -1.62,0.449 -8.732,0.498 -5.593,0.035 -7.754,-0.018 -8.55,-0.216 z m 34.216,0.142 c -0.083,-0.073 -0.151,-12.884 -0.151,-28.464 0,-28.057 -0.005,-28.332 -0.453,-28.735 -0.412,-0.37 -0.756,-0.407 -3.742,-0.407 l -3.29,0 0,-12.2 27.67,0 0,12.2 -3.572,0.01 c -3.727,0.01 -4.035,0.07 -4.556,0.946 -0.197,0.332 -0.264,7.588 -0.264,28.616 l 0,28.174 -5.747,0 c -3.159,0 -5.813,-0.062 -5.896,-0.137 l 0,-0.003 0.001,0 z m 29.288,-0.142 c -2.273,-0.565 -3.882,-2.063 -4.81,-4.48 -0.473,-1.234 -0.476,-1.402 -0.537,-29.49 -0.06,-27.792 -0.054,-28.278 0.398,-29.88 0.767,-2.719 2.144,-4.35 4.539,-5.372 0.696,-0.297 1.813,-0.34 9.072,-0.34 5.967,0 8.538,0.07 9.208,0.255 2.107,0.575 3.442,1.912 4.112,4.117 0.374,1.235 0.4,3.2 0.4,29.989 0,27.249 -0.02,28.728 -0.416,29.887 -0.913,2.672 -2.313,4.163 -4.731,5.042 -1.136,0.414 -1.621,0.441 -8.688,0.487 -5.587,0.037 -7.751,-0.016 -8.547,-0.215 z m 9.463,-11.96 c 1.297,-0.53 1.24,0.502 1.24,-22.946 0,-19.769 -0.03,-21.627 -0.377,-22.153 -0.894,-1.357 -2.835,-1.297 -3.58,0.112 -0.31,0.586 -0.352,3.174 -0.352,22.146 0,15.423 0.071,21.608 0.253,21.928 0.6,1.046 1.652,1.387 2.816,0.913 z m 15.757,10.407 0,-1.83 1.587,0 0,-62.416 -1.587,0 0,-3.883 11.736,0.062 c 11.694,0.062 11.741,0.063 12.87,0.528 2.39,0.984 3.974,2.956 4.553,5.67 0.466,2.185 0.464,20.28 -0.003,22.255 -0.725,3.064 -2.398,4.56 -5.534,4.947 l -1.169,0.145 0,3.215 0.738,0 c 1.786,0.01 4.221,1.588 5.245,3.41 1.01,1.797 1.048,2.403 1.048,16.42 l 0,13.308 -11.787,0 -0.06,-28.583 -0.06,-28.582 -0.741,-0.593 c -0.984,-0.788 -1.913,-0.788 -2.792,0 l -0.662,0.594 0,57.163 -13.381,0 0,-1.83 -0.001,0 z"
         id="path3615"
         style="fill:#ffffff;fill-opacity:1;stroke:#000000;stroke-width:1.6249156;stroke-miterlimit:4;stroke-opacity:1;stroke-dasharray:none" />
    </g>
  </g>
</svg>
